<?xml version="1.0" encoding="UTF-8" standalone="no"?>
<!-- Created with Inkscape (http://www.inkscape.org/) -->

<svg
   width="20mm"
   height="20mm"
   viewBox="0 0 20 20"
   version="1.1"
   id="svg1"
   xml:space="preserve"
   inkscape:version="1.3.2 (091e20e, 2023-11-25)"
   sodipodi:docname="neuralquantumstatesjl_logo_dark.svg"
   inkscape:export-filename="neuralquantumstatesjl_logo.png"
   inkscape:export-xdpi="1016"
   inkscape:export-ydpi="1016"
   xmlns:inkscape="http://www.inkscape.org/namespaces/inkscape"
   xmlns:sodipodi="http://sodipodi.sourceforge.net/DTD/sodipodi-0.dtd"
   xmlns="http://www.w3.org/2000/svg"
   xmlns:svg="http://www.w3.org/2000/svg"><sodipodi:namedview
     id="namedview1"
     pagecolor="#505050"
     bordercolor="#eeeeee"
     borderopacity="1"
     inkscape:showpageshadow="0"
     inkscape:pageopacity="0"
     inkscape:pagecheckerboard="0"
     inkscape:deskcolor="#505050"
     inkscape:document-units="mm"
     showguides="true"
     showgrid="false"
     inkscape:zoom="10.177837"
     inkscape:cx="34.093688"
     inkscape:cy="41.61002"
     inkscape:window-width="1224"
     inkscape:window-height="772"
     inkscape:window-x="172"
     inkscape:window-y="25"
     inkscape:window-maximized="0"
     inkscape:current-layer="layer4"><inkscape:grid
       id="grid10"
       units="mm"
       originx="0"
       originy="0"
       spacingx="0.99999997"
       spacingy="0.99999997"
       empcolor="#0099e5"
       empopacity="0.30196078"
       color="#0099e5"
       opacity="0.14901961"
       empspacing="5"
       dotted="false"
       gridanglex="30"
       gridanglez="30"
       visible="false" /></sodipodi:namedview><defs
     id="defs1"><rect
       x="172.02663"
       y="238.19072"
       width="801.90875"
       height="441.97614"
       id="rect2" /><rect
       x="201.13882"
       y="314.94107"
       width="796.61566"
       height="357.2861"
       id="rect1" /></defs><g
     inkscape:groupmode="layer"
     id="layer4"
     inkscape:label="connections"><path
       style="fill:none;stroke:#ffffff;stroke-width:0.5;stroke-opacity:1;stroke-dasharray:none"
       d="M 11.501477,12.035782 9.150785,7.9642179"
       id="path11"
       sodipodi:nodetypes="cc" /><path
       style="fill:none;stroke:#ffffff;stroke-width:0.5;stroke-opacity:1;stroke-dasharray:none"
       d="M 6.800093,12.035782 9.150785,7.9642179"
       id="path10"
       sodipodi:nodetypes="cc"
       inkscape:label="path10" /></g><g
     id="g7"
     transform="matrix(2.4044481,0,0,2.4044481,-14.752865,-3.6499289)"
     inkscape:label="ket"><g
       inkscape:label="Layer 1"
       inkscape:groupmode="layer"
       id="layer1"><path
         style="font-size:5.64444px;font-family:'CMU Serif';-inkscape-font-specification:'CMU Serif';fill:#ffffff;stroke-width:0.264583;fill-opacity:1"
         d="M 7.6115441,8.2667012 H 7.1815965 V 3.101818 h 0.4299476 z"
         id="text3"
         aria-label="∣" /><path
         style="font-weight:500;font-size:5.17114px;font-family:'CMU Serif';-inkscape-font-specification:'CMU Serif Medium';fill:#ffffff;stroke:#ffffff;stroke-width:0;paint-order:stroke fill markers;fill-opacity:1"
         d="m 11.927889,8.133699 0.392477,0.1325933 1.087265,-2.3866801 V 5.4765285 l -1.087265,-2.389332 -0.392477,0.1352452 0.869813,2.4529768 z"
         id="text5"
         aria-label="⟩" /></g></g><g
     id="g6"
     transform="matrix(0.02714376,0,0,0.02714376,4.400627,5.2498419)"
     inkscape:label="dots"><path
       fill-rule="nonzero"
       fill="#cb3c33"
       fill-opacity="1"
       d="m 163.39844,250 c 0,41.42187 -33.57813,75 -75.000002,75 -41.421876,0 -75,-33.57813 -75,-75 0,-41.42188 33.578124,-75 75,-75 41.421872,0 75.000002,33.57812 75.000002,75 z m 0,0"
       id="path1" /><path
       fill-rule="nonzero"
       fill="#389826"
       fill-opacity="1"
       d="m 250,100 c 0,41.42187 -33.57813,75 -75,75 -41.42188,0 -75,-33.57813 -75,-75 0,-41.421875 33.57812,-75 75,-75 41.42187,0 75,33.578125 75,75 z m 0,0"
       id="path2" /><path
       fill-rule="nonzero"
       fill="#9558b2"
       fill-opacity="1"
       d="m 336.60156,250 c 0,41.42187 -33.57812,75 -75,75 -41.42187,0 -75,-33.57813 -75,-75 0,-41.42188 33.57813,-75 75,-75 41.42188,0 75,33.57812 75,75 z"
       id="path3"
       sodipodi:nodetypes="sssss" /></g></svg>
